<svg xmlns="http://www.w3.org/2000/svg" width="96" height="96" viewBox="0 0 96 96"><defs><style>.cls-1{fill:#a3a3a3;}</style></defs><title>scribble final version</title><g id="Layer_1" data-name="Layer 1"><path class="cls-1" d="M62.17,16a28.44,28.44,0,0,0-7.8-2.55c-1-.14-2-.14-3-.19a27.94,27.94,0,0,0-10.76,1.29,22.29,22.29,0,0,0-4.42,2.15c-.43.29-.88.56-1.33.83l-1.31.89c-.9.55-1.77,1.16-2.75,1.64-.61.29-1.07-.35-1.14-1.36a4.22,4.22,0,0,1,1.21-3.34,26.48,26.48,0,0,1,2.82-2.22,31.4,31.4,0,0,1,3.18-1.72,26.35,26.35,0,0,1,7-2,50.36,50.36,0,0,1,8.79-.87,33.47,33.47,0,0,1,9.49,1.83,36.37,36.37,0,0,1,5.4,2.43A42.65,42.65,0,0,1,74.74,18a34.53,34.53,0,0,1,5,5,8.68,8.68,0,0,1,1,1.33,4.59,4.59,0,0,1,.4,1.25,2.37,2.37,0,0,1-.12,1A2.44,2.44,0,0,1,80,27.78a7.37,7.37,0,0,1-.66.43c-.74.33-1.68-.17-2.81-.83-.27-.31-.69-.56-.92-.88s-.57-.61-.82-.92l-.86-.91-.89-.9a40.27,40.27,0,0,0-3.94-3.48,33.51,33.51,0,0,0-6.92-4.15Z"/><path class="cls-1" d="M87,27.58a7.36,7.36,0,0,1-1.79,3.81,6.67,6.67,0,0,1-1.85,1.38,7.3,7.3,0,0,1-2,.64,10.13,10.13,0,0,1-2.57.19,19,19,0,0,1-3.9-.86c-1.23-.38-2.42-.81-3.58-1.29s-2.08-.78-3.1-1.21a9.82,9.82,0,0,1-3.71-2.16c-.33-.34.11-.81.76-1.15a2.86,2.86,0,0,1,2.17-.35c2.37.94,4.9,1.63,7.39,2.49a12.49,12.49,0,0,0,4.58.39A4.11,4.11,0,0,0,81.22,29a2.1,2.1,0,0,0,.57-.47,4.12,4.12,0,0,0,.46-.74,6.77,6.77,0,0,0,.5-2.8,19.93,19.93,0,0,0-.69-4.94c-.29-1.29-.92-2.46-1.24-3.75-.07-.29-.16-.57-.2-.86-.17-1.11-.05-1.53.36-1.92a3.25,3.25,0,0,1,.27-.26c.31-.21.78.1,1.37.75l1.31,1.49A11.27,11.27,0,0,1,85,17.17a12,12,0,0,1,1.61,3.72,17.67,17.67,0,0,1,.48,6.7Z"/><path class="cls-1" d="M20.68,50.53a23.25,23.25,0,0,0,1.31,8,26.55,26.55,0,0,0,1.33,2.67,22.71,22.71,0,0,0,2.93,4.48,26.84,26.84,0,0,0,1.85,2c.69.61,1.36,1.25,2.11,1.79a20.37,20.37,0,0,0,4.3,2.46c.49.2,1,.43,1.45.64s1,.38,1.49.59a29.68,29.68,0,0,1,2.93,1.36c.59.35.31,1.08-.49,1.7a4.28,4.28,0,0,1-3.46.87A26.35,26.35,0,0,1,33,76a27.57,27.57,0,0,1-3.24-1.67,24.69,24.69,0,0,1-5.67-4.69,40.6,40.6,0,0,1-5.5-7.14,28.36,28.36,0,0,1-2.95-9.41,32.55,32.55,0,0,1-.15-6,39.79,39.79,0,0,1,1.71-8.82,41.43,41.43,0,0,1,2.31-6.66,12.25,12.25,0,0,1,.74-1.44,4.87,4.87,0,0,1,.91-.91,2.44,2.44,0,0,1,.92-.35,2.54,2.54,0,0,1,1.63.31,5.08,5.08,0,0,1,.7.36c.66.47.7,1.54.6,2.9l-.19.65a2.45,2.45,0,0,1-.2.63c-.18.38-.32.79-.49,1.19-.32.8-.62,1.61-.92,2.44a44.48,44.48,0,0,0-1.54,5.11,29.9,29.9,0,0,0-.85,8Z"/><path class="cls-1" d="M21.17,23.36A7.66,7.66,0,0,1,25.73,23a6.89,6.89,0,0,1,3.8,2.73,12.59,12.59,0,0,1,1.37,2.36A21.9,21.9,0,0,1,32,32.31c.24,1.38.42,2.75.52,4.12.1,1.21.24,2.42.3,3.63a9.18,9.18,0,0,1-.64,4.76c-.25.48-.81.15-1.32-.4a3.4,3.4,0,0,1-1.08-2,70.41,70.41,0,0,0-1-8.37,13.87,13.87,0,0,0-1.88-4.72,4.79,4.79,0,0,0-1.35-1.65,2.46,2.46,0,0,0-1.7-.37,7.45,7.45,0,0,0-2.95,1.08,23.35,23.35,0,0,0-4.34,3.37c-1.08,1-1.87,2.2-2.95,3.2-.24.22-.46.45-.72.65-1,.76-1.45.87-2,.69a1.69,1.69,0,0,1-.36-.13c-.32-.18-.22-.75.12-1.62l.78-2a14.83,14.83,0,0,1,1-1.88,14.8,14.8,0,0,1,2.69-3.46,19.75,19.75,0,0,1,6-4Z"/><path class="cls-1" d="M71.57,69.37a23.1,23.1,0,0,0,6.59-5.54,30.14,30.14,0,0,0,1.74-2.69,26.5,26.5,0,0,0,3.89-10.88,21.13,21.13,0,0,0,.15-2.64c0-.88-.09-1.76-.17-2.63-.26-2.25-.71-4.45-.85-6.78,0-.73.76-.86,1.71-.46a4.91,4.91,0,0,1,1.48,1,3.7,3.7,0,0,1,1.08,1.73c.17.62.35,1.23.5,1.85s.26,1.26.35,1.9.11,1.28.15,1.92a18,18,0,0,1,0,1.94A24.94,24.94,0,0,1,87,55.77a43.81,43.81,0,0,1-3.55,8.84,28.93,28.93,0,0,1-7,7.78,28.25,28.25,0,0,1-5.5,3.3,30.52,30.52,0,0,1-4.54,1.68,42.78,42.78,0,0,1-4.71,1,39.38,39.38,0,0,1-7.47.64,11.75,11.75,0,0,1-1.68-.1,7,7,0,0,1-1.26-.44A2.7,2.7,0,0,1,50,76.15a5.44,5.44,0,0,1,0-.8,1.45,1.45,0,0,1,.76-1,6.44,6.44,0,0,1,1.74-.76,18.78,18.78,0,0,1,2.86-.18c.93,0,1.86-.06,2.78-.14a34.89,34.89,0,0,0,5.54-.8,30.51,30.51,0,0,0,4-1.26,25,25,0,0,0,3.78-1.94Z"/><path class="cls-1" d="M47.66,83.51a10.86,10.86,0,0,1-2.55-2.13A7.89,7.89,0,0,1,43.3,78a6.18,6.18,0,0,1,0-3,9,9,0,0,1,2.22-3.61,31.06,31.06,0,0,1,2.67-2.5l2.36-2a10.24,10.24,0,0,1,3.3-2.23c.41-.14.69.43.76,1.15a2.61,2.61,0,0,1-.53,2.09c-1.81,1.69-3.53,3.45-5.25,5.12a5.41,5.41,0,0,0-1.17,1.69,4.13,4.13,0,0,0-.36,1.51,2.19,2.19,0,0,0,.4,1.36A7.18,7.18,0,0,0,49.06,79a13.08,13.08,0,0,0,2.5,1.61A27.54,27.54,0,0,0,56,82.37c1.19.42,2.45.49,3.65.91.27.1.53.18.79.3,1,.47,1.24.82,1.3,1.37,0,.13,0,.26,0,.37,0,.37-.52.57-1.32.71l-1.83.3a11.45,11.45,0,0,1-1.85.07,12.08,12.08,0,0,1-3.72-.48,25.65,25.65,0,0,1-5.46-2.31Z"/></g></svg>