<svg xmlns="http://www.w3.org/2000/svg" width="96" height="96" viewBox="0 0 96 96"><defs><style>.cls-1{fill:#a3a3a3;}</style></defs><title>scribble final version</title><g id="Layer_1" data-name="Layer 1"><path class="cls-1" d="M40.48,44.33a109.91,109.91,0,0,0-9.26,8.56c-1.09,1.1-1.94,2.39-3,3.51l-1.39,1.5L25.5,59.45l-2.65,3.12-2.51,3.25L19.1,67.46l-1.16,1.7c-.68,1-1.33,2-2,3.08-.33.52-.59,1.06-.88,1.6l-.86,1.6c-1.5,2.71-2.61,5.61-4.49,8.16-.58.8-1.52.25-2.18-1a6.1,6.1,0,0,1-.42-4.86,58.22,58.22,0,0,1,10.08-17c1.23-1.56,2.49-3.13,3.65-4.79s2.4-3.28,3.69-4.84a123.07,123.07,0,0,1,9.11-9.72c1-1,2-1.85,3-2.77l1.52-1.38L39.81,36c.79-.66,1.58-1.34,2.38-2l2.49-1.88c1.62-1.29,3.38-2.41,5-3.68,1.31-.93,2.58-1.89,3.84-2.91s2.59-1.94,4-2.8c.63-.38,1.21-.81,1.87-1.15.3-.16.58-.29.84-.41A4.29,4.29,0,0,1,61,21a3.38,3.38,0,0,1,1.26,0,2.86,2.86,0,0,1,1.8,1.36,8.62,8.62,0,0,1,.71,1.07c.63,1.26,0,2.75-1.31,3.85-4.14,3.11-8.66,6.06-13.12,9.39l-2.46,1.9-1.25.93-1.21,1-2.47,2c-.8.67-1.59,1.37-2.38,2.06Z"/><path class="cls-1" d="M58.92,23.1l.5,1.18c.31.66.57,1.34.85,2a8.56,8.56,0,0,1,.65,1.85,8.31,8.31,0,0,1,.44,1.67c.06.51.25,1,.29,1.49a8.77,8.77,0,0,1,.11,1.3l0,1.17c-.08.34-.17.68-.28,1l-.08.24c-.12.18-.2.47-.34.72s-.29.53-.46.8a5.21,5.21,0,0,1-1.54,1A4.16,4.16,0,0,1,56.27,37,7.92,7.92,0,0,1,54.9,36c-.23-.18-.47-.43-.71-.64l-.73-.81a30.92,30.92,0,0,1-2.77-3.88c-.95-1.58-1.28-2.24-1.78-3.19s-.78-1.65-1.19-2.43-.84-1.5-1.29-2.18a10.69,10.69,0,0,0-.93-1.19,8.5,8.5,0,0,1-.68-.73v0l0-.12a.26.26,0,0,1,0-.13.35.35,0,0,0,0-.18v-.06h0c.16.9,0,.25.08.45h0s0,0,0-.05l0-.08c.06.06,0,0-.11.1a2.71,2.71,0,0,0-.48,1.2c-.13.63-.51.65-1.07.05a3.11,3.11,0,0,1-.76-1.52,2.39,2.39,0,0,1,.19-1.49,2.63,2.63,0,0,1,2-1.43,4.54,4.54,0,0,1,.74,0,3.4,3.4,0,0,1,.57.11,5.25,5.25,0,0,1,.52.17l.37.18A3.86,3.86,0,0,1,48,18.9a14.19,14.19,0,0,1,1.34,1.63,29.08,29.08,0,0,1,1.9,3.19L52,25.26c.07.16.21.41.35.66l.4.72L53,27l.1.18c0,.05,0,0,0,.06l0,.17a2.93,2.93,0,0,0,.13.51A3.39,3.39,0,0,0,54,29.24a2,2,0,0,0,.56.41.67.67,0,0,0,.67,0,.78.78,0,0,0,.34-.41A5.4,5.4,0,0,0,55,26.71l-.11-.31c0-.06,0-.07-.08-.19l-.15-.32-.61-1.36a22.17,22.17,0,0,1-1.07-3,7.8,7.8,0,0,1-.27-2.75,5.08,5.08,0,0,1,.42-1.58,3.87,3.87,0,0,1,.47-.79,2.52,2.52,0,0,1,1-.82,2.4,2.4,0,0,1,1.54-.18,3,3,0,0,1,.58.2,4.77,4.77,0,0,1,.44.24,6.84,6.84,0,0,1,1.1,1c.57.63,1,1.25,1.45,1.79,1.44,1.71,3,3.37,4.47,4.84a10.77,10.77,0,0,1,.9,1,5.5,5.5,0,0,1,1,1.58,3.12,3.12,0,0,1,0,1.33c0,.2-.06.41-.12.57s-.36.38-.83.41A3.28,3.28,0,0,1,63.19,28c-.5-.25-1-.52-1.49-.81L61,26.75a6.67,6.67,0,0,1-.64-.53C59.51,25.5,58.74,24.74,58,24L55.9,21.74c-.4-.45-.71-.81-1-1.11-.14-.14-.27-.27-.37-.35a.32.32,0,0,0-.12-.09l0,0h0s0,0,0-.05l.24-.3c.22-.31.43-.68.56-.86a2.53,2.53,0,0,0,.18-.37l.07-.19a.6.6,0,0,0,.06-.11,1,1,0,0,0,.07-.25V17.9l0,0c0-.06,0-.19,0-.1l0,0a1.34,1.34,0,0,0,.1.17c.1.13.18.14.41.37a2.42,2.42,0,0,0,.66.41,5.73,5.73,0,0,0,1,.53l.06,0h0L57.19,19h0l.07,0a1.47,1.47,0,0,0,.28.08l.36.07h0a1.44,1.44,0,0,0,0,.39A11.86,11.86,0,0,0,59,23Z"/><path class="cls-1" d="M41.69,17.83l1.5-.57L43.9,17l.4-.15,1.63-.55c1.09-.36,2.18-.71,3.29-1,2.2-.68,4.42-1.3,6.68-1.85,1.64-.41,3.26-.94,4.94-1.23.75-.11,1.49-.25,2.25-.33s1.51-.14,2.27-.16c1.52-.09,3-.11,4.59,0a19.84,19.84,0,0,1,2.45.2,5.16,5.16,0,0,1,.68.14c.25.06.46.1.72.18l.81.28a6.45,6.45,0,0,1,.74.38,5.6,5.6,0,0,1,1.27,1,6.25,6.25,0,0,1,.43.7,5,5,0,0,1,.29.76,7,7,0,0,1,0,3.27C76.9,20,76.44,21.26,76,22.48s-.9,2.38-1.29,3.55a54.18,54.18,0,0,0-2,9c-.13.94-.8.94-1.63.1a6,6,0,0,1-1.22-1.88,5.46,5.46,0,0,1-.45-2.85,47.94,47.94,0,0,1,2.52-10.11c.24-.75.47-1.48.63-2.13l.1-.46c0-.06,0,0,0-.07a.53.53,0,0,0,.08-.15.42.42,0,0,0-.06-.4c-.07-.07-.07-.12-.23-.18l-.33-.1-.46-.06a8.32,8.32,0,0,0-1.26-.07L69,16.77c-1,.09-1.91.21-2.87.39-1.91.39-3.83.79-5.76,1.22a109.06,109.06,0,0,0-12.67,3.68L46,22.68,45,23l-1,.36a4.65,4.65,0,0,0-.52.2c-.09.17.06.33.14.47a8.35,8.35,0,0,0,1.08,1.16l.63.56.33.28.59.46A55.26,55.26,0,0,0,51.27,30a51.35,51.35,0,0,0,8.49,4c.64.25,1.28.42,1.9.66,2.31.85,2.82,1.28,3,2.86a10.12,10.12,0,0,1,.14,1.07A1.38,1.38,0,0,1,63.89,40a4.37,4.37,0,0,1-2.59.11c-6.19-1.38-11.49-4.71-16.68-8.27l-1.42-1-.71-.54a4.94,4.94,0,0,0-.69-.43c-.25-.15-.5-.29-.75-.46a21,21,0,0,1-2.89-2.11l-.62-.59c-.16-.21-.33-.41-.47-.61a6.15,6.15,0,0,1-.68-1.2A4.68,4.68,0,0,1,36,22.69a3.6,3.6,0,0,1,.07-.55,4.38,4.38,0,0,1,.15-.6l.65-.88.66-.87.16-.22c.07-.07.08-.15.23-.2l.74-.33c1-.44,1.94-.9,2.94-1.33Z"/><path class="cls-1" d="M69.6,64.78A5.5,5.5,0,0,1,68.29,66a6.64,6.64,0,0,1-1.37.67,4.56,4.56,0,0,1-1.23.22,8.31,8.31,0,0,1-1-.08,6.19,6.19,0,0,1-1.55-.19,5.18,5.18,0,0,1-2.57-1.89A4.09,4.09,0,0,1,59.81,62a7.91,7.91,0,0,1,.45-2,2.33,2.33,0,0,1,1.62-1.7c.27-.05.67.57,1.08,1.24s.92,1.38,1,1.53a.87.87,0,0,0,.17.32s.08.06.09.08.14,0,0,0a1.16,1.16,0,0,0-.69.14,1.15,1.15,0,0,0,.13-.23c.07-.11.09-.34.11-.32s0,0,.08,0,.34,0,.41,0,.15.07.13.09a1,1,0,0,0,.14.25,1.5,1.5,0,0,1,.15.21s.17.16.16.16l.06,0a.21.21,0,0,0-.1,0s-.14,0-.19,0,0,0,0,0l.09-.05a.82.82,0,0,0,.11-.21.73.73,0,0,0-.14-.54c-.2-.27-.63-.22-.9-.27-.07,0-.14,0-.2,0-.22-.09-.26-.38-.28-1.37l0-.67A1.61,1.61,0,0,1,64,57a4.76,4.76,0,0,1,5.45,1.56,5,5,0,0,1,.76,1.18,5.6,5.6,0,0,1,.47,1.53,2.46,2.46,0,0,1,0,.9,5.07,5.07,0,0,1-.16.92,5.65,5.65,0,0,1-.82,1.8Z"/><path class="cls-1" d="M17,21.2a5.06,5.06,0,0,1-1.71-.43A5.61,5.61,0,0,1,14,20a4.26,4.26,0,0,1-.81-.9,6.51,6.51,0,0,1-.47-.9,6,6,0,0,1-.64-1.37,5.05,5.05,0,0,1,.25-3.08,3.91,3.91,0,0,1,1.92-2,7.64,7.64,0,0,1,1.87-.66,2.18,2.18,0,0,1,2.19.46c.18.2-.14.87-.48,1.57s-.65,1.52-.71,1.66a.67.67,0,0,0-.13.31.19.19,0,0,0,0,.11A.59.59,0,0,0,17,15a1,1,0,0,0-.46-.47c-.07,0,0,0,.25,0a3.46,3.46,0,0,0,.45-.12c.07,0,0,0,.08,0s.16.25.16.3,0,0,0,.06v.05l-.07.08a2.74,2.74,0,0,0-.26.54.74.74,0,0,0,0,.2.08.08,0,0,0,0,.07.24.24,0,0,0,0-.09.87.87,0,0,0-.07-.17l0-.06,0-.05.08.06a.7.7,0,0,0,.21,0,.62.62,0,0,0,.36-.35c.11-.27-.16-.57-.25-.79,0,0-.1-.09-.1-.15,0-.21.2-.4,1-.94l.55-.37a1.62,1.62,0,0,1,1.76-.23,4.53,4.53,0,0,1,1.59,5.24,4.75,4.75,0,0,1-.57,1.24,5.3,5.3,0,0,1-1,1.19,2.26,2.26,0,0,1-.73.48,5.4,5.4,0,0,1-.85.35,5.74,5.74,0,0,1-1.93.26Z"/><path class="cls-1" d="M90.5,45.28a6.3,6.3,0,0,1-2,2,7.73,7.73,0,0,1-1.22.64,7.24,7.24,0,0,1-1.36.38c-.33.07-.65.09-1,.14a2.58,2.58,0,0,1-1,0,5.08,5.08,0,0,1-1.53-.49,7.83,7.83,0,0,1-1.2-.9,8.28,8.28,0,0,1-1.71-2.19,5.68,5.68,0,0,1-.75-2.47,7,7,0,0,1,.1-.92,4.41,4.41,0,0,1,.39-.85,4.44,4.44,0,0,1,.63-.6,3.09,3.09,0,0,1,.73-.27c.33-.07.5.41.69,1,.1.29.22.61.33.87a1.31,1.31,0,0,0,.37.51c-.06,0,0,0-.07,0h0l.08,0h.16l.08,0h.16a1.15,1.15,0,0,0,.28-.07s.14,0,.17,0,.29.36.51.74A.69.69,0,0,0,84,43a3.19,3.19,0,0,1,.55.13,1.45,1.45,0,0,0,.54.11,1.66,1.66,0,0,0,.73-.26c.29-.17.42-.26.48-.39s0-.76-.56-1a1.46,1.46,0,0,0-1.29.3c-.08,0-.15.16-.22.18-.26.1-.44-.17-1-1.29l-.41-.75a1.78,1.78,0,0,1,.05-2.22,4.61,4.61,0,0,1,3.26-1,5.78,5.78,0,0,1,3.56,1.62,5.48,5.48,0,0,1,1.68,3.15,5.59,5.59,0,0,1-.68,3.69Z"/></g></svg>